# xmcd
#
# Track frame offsets:
#	150
#	15019
#	28725
#	43828
#	59420
#	76425
#	88810
#	104399
#	118930
#	135693
#	153997
#
# Disc length: 2185 seconds
#
# Revision: 0
# Processed by: cddbd v1.5.2PL0 Copyright (c) Steve Scherf et al.
# Submitted via: dBpowerAMP V4.0
#
DISCID=8b08870b
DTITLE=Pete "Big Dog" Fetters - Deep
DYEAR=2004
DGENRE=Blues
TTITLE0=Who's That Knockin'?
TTITLE1=Cornfiled Cadillac
TTITLE2=When I Turn 85
TTITLE3=The Blue Highway
TTITLE4=Midnight Walkin' Blues
TTITLE5=Does Your Mama Know?
TTITLE6=Midnight Train
TTITLE7=If I Can't
TTITLE8=I Won't Tell
TTITLE9=Like You Do
TTITLE10=Oh Suzanna
EXTD=
EXTT0=
EXTT1=
EXTT2=
EXTT3=
EXTT4=
EXTT5=
EXTT6=
EXTT7=
EXTT8=
EXTT9=
EXTT10=
PLAYORDER=
